<?xml version="1.0" encoding="UTF-8" standalone="no"?>
<svg width="160px" height="224px" viewBox="0 0 160 224" version="1.1" xmlns="http://www.w3.org/2000/svg" xmlns:xlink="http://www.w3.org/1999/xlink">
    <!-- Generator: Sketch 42 (36781) - http://www.bohemiancoding.com/sketch -->
    <title>avatar_jenna</title>
    <desc>Created with Sketch.</desc>
    <defs></defs>
    <g id="Welcome" stroke="none" stroke-width="1" fill="none" fill-rule="evenodd">
        <g id="Desktop-HD" transform="translate(-753.000000, -1259.000000)">
            <g id="bios" transform="translate(61.000000, 1259.000000)">
                <g id="avatar_jenna" transform="translate(692.000000, 0.000000)">
                    <g id="shadow" transform="translate(0.000000, 205.144085)">
                        <ellipse id="Oval-Copy" fill="#F7F9FA" cx="80" cy="9.28968655" rx="80" ry="9.28968655"></ellipse>
                        <ellipse id="Oval" fill="#E9EAEC" cx="79.0697674" cy="9.28968655" rx="32.5581395" ry="3.71587462"></ellipse>
                    </g>
                    <g id="girl" transform="translate(25.274482, 0.000000)">
                        <path d="M52.8836576,0.150987108 L52.8836576,0.150987108 C51.720867,0.150987108 50.5710995,0.203009353 49.4287739,0.277326845 C44.73296,0.585744439 40.2027274,1.51842897 35.9162158,2.98991532 C28.2622623,5.61889661 21.3859832,9.95718023 15.7710995,15.5625771 C10.0185414,21.3054613 5.59621579,28.369339 2.9822623,36.2395614 C1.26877393,41.4064851 0.325518114,46.9152692 0.325518114,52.6377161 L0.325518114,86.8219047 C0.325518114,191.773067 23.9757507,170.440231 52.8836576,170.440231 L52.8836576,156.832698 C81.7897042,156.832698 105.441797,191.773067 105.441797,86.8219047 L105.441797,52.6377161 C105.441797,23.7690862 81.7897042,0.150987108 52.8836576,0.150987108" id="Fill-60" fill="#D13D13"></path>
                        <path d="M18.4665414,191.157533 L18.4665414,191.157533 L19.7670065,191.157533 C19.3279367,191.157533 18.8963088,191.127806 18.4665414,191.092505 L18.4665414,191.157533 Z" id="Fill-62" fill="#0DA9A1"></path>
                        <path d="M25.3480297,180.010652 C25.3480297,178.47228 24.0996576,177.223746 22.5573321,177.223746 C21.0150065,177.223746 19.7666344,178.47228 19.7666344,180.010652 L19.7666344,191.158276 L19.7666344,191.158276 L25.9247739,191.158276 C25.5601228,189.660779 25.3480297,188.120549 25.3480297,186.554307 L25.3480297,180.010652 Z" id="Fill-64" fill="#0DA9A1"></path>
                        <path d="M88.2097972,191.157719 L88.2097972,191.157719 L88.2097972,191.083401 C87.7242158,191.12985 87.2311925,191.157719 86.7325879,191.157719 L88.2097972,191.157719 Z" id="Fill-66" fill="#0DA9A1"></path>
                        <path d="M86.7324018,180.010652 C86.7324018,178.483428 85.4914716,177.244184 83.9621693,177.244184 C82.4310065,177.244184 81.1900763,178.483428 81.1900763,180.010652 L81.1900763,186.357366 C81.1900763,187.992351 80.9630995,189.599467 80.5724018,191.158276 L86.7324018,191.158276 L86.7324018,191.158276 L86.7324018,180.010652 Z" id="Fill-68" fill="#0DA9A1"></path>
                        <path d="M75.8477507,137.781038 C80.5565879,148.38057 76.6998437,160.299238 66.8579832,166.452726 C63.8979832,168.303232 60.6830995,169.61122 57.5407739,170.261498 L53.5668204,160.880772 C53.0551925,159.897923 51.6710065,159.832896 51.0682158,160.763722 L47.6263553,170.335815 C46.0468204,170.032971 44.4765879,169.561055 42.9472856,168.93493 C30.6551925,163.894347 25.1240297,149.874352 30.469146,137.727157 C14.9324018,144.322835 4.3314716,157.499326 4.3314716,172.684248 L4.3314716,175.744271 C4.3314716,183.818866 10.552867,190.431265 18.4672856,191.092691 C18.8951925,191.127992 19.3268204,191.157719 19.7658902,191.157719 L19.7658902,191.157719 L19.7658902,180.010095 C19.7658902,178.471723 21.0161228,177.223189 22.5565879,177.223189 C24.0989135,177.223189 25.3472856,178.471723 25.3472856,180.010095 L25.3472856,186.55375 C25.3472856,188.119991 25.5593786,189.660221 25.9258902,191.157719 C26.8003088,194.736106 28.6607739,198.032087 31.3751925,200.618335 C43.5686809,212.241591 62.7426344,212.28804 74.9937972,200.724238 C77.7584483,198.111978 79.6635646,194.780696 80.5733321,191.157719 C80.9640297,189.598909 81.189146,187.991793 81.189146,186.356809 L81.189146,180.010095 C81.189146,178.48287 82.4319367,177.243626 83.961239,177.243626 C85.4905414,177.243626 86.7314716,178.48287 86.7314716,180.010095 L86.7314716,191.157719 L86.7333321,191.157719 C87.2319367,191.157719 87.7230995,191.12985 88.2105414,191.083401 C95.8663553,190.340226 101.853332,183.898758 101.853332,176.056404 L101.853332,172.684248 C101.853332,157.542059 91.3137972,144.395294 75.8477507,137.781038" id="Fill-70" fill="#4FC2C4"></path>
                        <path d="M42.9480297,168.93493 C44.4754716,169.561055 46.0457042,170.032971 47.625239,170.335815 L51.06896,160.763722 C51.6698902,159.832896 53.0540763,159.897923 53.5675646,160.880772 L57.5415181,170.261498 C60.6838437,169.61122 63.8987274,168.303232 66.8587274,166.452726 C76.7005879,160.299238 80.5573321,148.38057 75.8484949,137.781038 C75.8484949,137.781038 65.7294251,133.223517 53.065239,133.223517 C40.401053,133.223517 30.4754716,137.712294 30.4754716,137.712294 C30.4736111,137.717868 30.4717507,137.721584 30.4698902,137.727157 C25.1229135,149.874352 30.6540763,163.894347 42.9480297,168.93493" id="Fill-72" fill="#0DA9A1"></path>
                        <path d="M53.09296,103.403066 C46.8827274,103.403066 41.8017972,108.477093 41.8017972,114.678888 L41.8017972,115.576271 C41.8017972,109.374477 46.8827274,104.30045 53.09296,104.30045 C59.3031925,104.30045 64.3841228,109.374477 64.3841228,115.576271 L64.3841228,114.678888 C64.3841228,108.477093 59.3031925,103.403066 53.09296,103.403066" id="Fill-74" fill="#221F20"></path>
                        <path d="M41.8014251,132.153903 L41.8014251,134.277525 L41.8014251,135.174909 L41.8014251,140.202487 C41.8014251,144.200768 46.4953786,149.700263 49.8293321,153.102146 C51.6265414,154.93593 54.5604949,154.93593 56.3577042,153.102146 C59.6916576,149.700263 64.3856111,144.200768 64.3856111,140.202487 L64.3856111,135.174909 L64.3856111,134.277525 L64.3856111,132.153903 C60.7967739,133.1832 57.0125879,134.992831 53.0925879,134.992831 C49.1744483,134.992831 45.3884018,133.1832 41.8014251,132.153903" id="Fill-76" fill="#FFE1AD"></path>
                        <path d="M96.4920297,68.4353855 C96.2966809,65.8862955 95.0315646,63.6883557 93.1841228,62.2001479 L93.1841228,76.0492126 C95.3962158,74.2711666 96.7245879,71.4749709 96.4920297,68.4353855" id="Fill-78" fill="#FCCA80"></path>
                        <path d="M8.14375067,69.7931661 C8.33909951,72.3422561 9.60421579,74.5401959 11.4516576,76.0284037 L11.4516576,62.179339 C9.23956463,63.957385 7.91119253,66.7535806 8.14375067,69.7931661" id="Fill-80" fill="#FCCA80"></path>
                        <path d="M41.8014251,126.445948 L41.8014251,132.153531 C45.3884018,133.182829 49.1744483,134.99246 53.0925879,134.99246 C57.0125879,134.99246 60.7967739,133.182829 64.3856111,132.153531 L64.3856111,125.838402 C60.5697972,127.458524 56.5195646,128.368913 52.3186344,128.368913 C48.6814251,128.368913 45.1577042,127.681476 41.8014251,126.445948" id="Fill-82" fill="#D7B48A"></path>
                        <path d="M93.1846809,47.3154689 C93.1846809,24.7768314 74.888867,47.9768946 52.3177042,47.9768946 C43.9753786,47.9768946 36.217239,40.3259087 29.7521228,40.2125746 C29.6404949,40.2107166 29.5307274,40.2088587 29.42096,40.2088587 C19.448867,40.1661261 11.4507274,48.4896853 11.4507274,58.4482293 L11.4507274,62.1789674 L11.4507274,76.0280321 L11.4507274,79.2274002 L11.4618902,79.2274002 C11.4600297,79.3686034 11.4507274,79.5060907 11.4507274,79.647294 C11.4507274,98.5536641 24.328867,120.016556 41.8004949,126.446877 C45.1567739,127.680547 48.6804949,128.369842 52.3177042,128.369842 C56.5186344,128.369842 60.5707274,127.459453 64.3846809,125.837473 C81.0637507,118.745727 93.1846809,97.990709 93.1846809,79.647294 C93.1846809,79.5060907 93.1753786,79.3686034 93.1735181,79.2274002 L93.1846809,79.2274002 L93.1846809,76.0503274 L93.1846809,62.2012626 L93.1846809,47.3154689 Z" id="Fill-84" fill="#FFE1AD"></path>
                        <path d="M40.1377972,58.9725392 C39.9759367,58.9725392 39.8103553,58.9558177 39.6447739,58.9205169 C33.4215181,57.5828021 26.8503553,57.2167884 23.6708204,58.0398547 C22.4243088,58.3631357 21.1573321,57.614387 20.8373321,56.3732849 C20.5173321,55.1321828 21.2633786,53.8632116 22.5080297,53.5436464 C27.2838437,52.3062601 35.2540763,53.2240811 40.625239,54.3797181 C41.881053,54.650977 42.6791925,55.8846474 42.4094251,57.1387551 C42.173146,58.2293643 41.2094251,58.9725392 40.1377972,58.9725392" id="Fill-86" fill="#BC7454"></path>
                        <path d="M64.3565879,58.9725392 C63.28496,58.9725392 62.321239,58.2293643 62.08496,57.1387551 C61.8151925,55.8846474 62.6133321,54.650977 63.869146,54.3797181 C69.2421693,53.2222232 77.2124018,52.3062601 81.9882158,53.5436464 C83.2310065,53.8632116 83.9789135,55.1303248 83.6589135,56.3732849 C83.337053,57.614387 82.0700763,58.3631357 80.8254251,58.0398547 C77.6421693,57.2167884 71.072867,57.5828021 64.8496111,58.9205169 C64.6840297,58.9558177 64.5184483,58.9725392 64.3565879,58.9725392" id="Fill-88" fill="#BC7454"></path>
                        <path d="M53.1346344,111.348535 C50.2657972,111.348535 41.6257972,109.516609 41.6257972,106.811452 C41.6257972,106.319099 41.8323088,105.841609 42.1802158,105.494175 C42.8853321,104.791874 44.1392856,104.825317 44.8016111,105.466306 C45.6741693,105.947511 49.3541693,107.632661 53.1346344,107.632661 C57.101146,107.632661 61.153239,105.893631 62.0723088,105.423573 C62.7420763,104.819743 63.95696,104.806738 64.6434716,105.492317 C64.993239,105.841609 65.1978902,106.317241 65.1978902,106.811452 C65.1978902,109.516609 56.1430065,111.348535 53.1346344,111.348535" id="Fill-90" fill="#F05B3D"></path>
                        <path d="M83.0927739,99.5669831 C83.0927739,103.565264 79.8481228,106.805507 75.8444018,106.805507 C71.8425414,106.805507 68.5960297,103.565264 68.5960297,99.5669831 C68.5960297,95.568702 71.8425414,92.3284593 75.8444018,92.3284593 C79.8481228,92.3284593 83.0927739,95.568702 83.0927739,99.5669831" id="Fill-92" fill="#FBC39C"></path>
                        <path d="M37.7759367,99.5669831 C37.7759367,103.565264 34.5312856,106.805507 30.5275646,106.805507 C26.5257042,106.805507 23.2791925,103.565264 23.2791925,99.5669831 C23.2791925,95.568702 26.5257042,92.3284593 30.5275646,92.3284593 C34.5312856,92.3284593 37.7759367,95.568702 37.7759367,99.5669831" id="Fill-94" fill="#FBC39C"></path>
                        <path d="M72.8823553,85.7890774 C67.2990995,85.7890774 62.7558437,81.2519944 62.7558437,75.6763246 C62.7558437,70.0987968 67.2990995,65.5617139 72.8823553,65.5617139 C78.4656111,65.5617139 83.008867,70.0987968 83.008867,75.6763246 C83.008867,81.2519944 78.4656111,85.7890774 72.8823553,85.7890774 M33.4907274,85.7890774 C27.9056111,85.7890774 23.3623553,81.2519944 23.3623553,75.6763246 C23.3623553,70.0987968 27.9056111,65.5617139 33.4907274,65.5617139 C39.0739832,65.5617139 43.617239,70.0987968 43.617239,75.6763246 C43.617239,81.2519944 39.0739832,85.7890774 33.4907274,85.7890774 M72.8823553,61.8458392 C67.2711925,61.8458392 62.4414251,65.201274 60.2665414,70.002184 L58.9865414,69.6324545 C55.5818902,68.6533215 51.9818902,68.6533215 48.5790995,69.6324545 L46.2497972,70.3031699 C44.1474716,65.3387614 39.2190995,61.8458392 33.4907274,61.8458392 C25.8535181,61.8458392 19.6414251,68.0494919 19.6414251,75.6763246 C19.6414251,83.3012993 25.8535181,89.504952 33.4907274,89.504952 C41.1260763,89.504952 47.3381693,83.3012993 47.3381693,75.6763246 C47.3381693,75.070637 47.2860763,74.477955 47.2097972,73.8945627 L49.6097972,73.20341 C52.3390995,72.4156446 55.2246809,72.4156446 57.9558437,73.20341 L59.2135181,73.5657078 C59.1056111,74.2550025 59.0349135,74.9573028 59.0349135,75.6763246 C59.0349135,83.3012993 65.2470065,89.504952 72.8823553,89.504952 C80.5177042,89.504952 86.7297972,83.3012993 86.7297972,75.6763246 C86.7297972,68.0494919 80.5177042,61.8458392 72.8823553,61.8458392" id="Fill-96" fill="#5B5255"></path>
                        <path d="M68.8829135,78.8743921 C67.2475646,78.8743921 65.921053,77.5496828 65.921053,75.9165559 C65.921053,74.283429 67.2475646,72.9587197 68.8829135,72.9587197 C70.5182623,72.9587197 71.8447739,74.283429 71.8447739,75.9165559 C71.8447739,77.5496828 70.5182623,78.8743921 68.8829135,78.8743921 Z" id="Fill-98" fill="#404041"></path>
                        <path d="M32.4522158,75.9165559 C32.4522158,77.5496828 31.1257042,78.8743921 29.4903553,78.8743921 C27.8550065,78.8743921 26.5284949,77.5496828 26.5284949,75.9165559 C26.5284949,74.283429 27.8550065,72.9587197 29.4903553,72.9587197 C31.1257042,72.9587197 32.4522158,74.283429 32.4522158,75.9165559" id="Fill-100" fill="#404041"></path>
                        <path d="M48.4799367,96.688295 C48.3645879,96.7533228 50.120867,97.7083026 51.929239,97.7083026 C53.8045879,97.7083026 55.7152856,96.688295 55.5776111,96.688295" id="Fill-102" fill="#FCCA80"></path>
                        <path d="M57.2057042,97.753822 C57.4587274,97.4398306 57.6187274,97.0756749 57.6187274,96.6464914 C57.6187274,96.1448483 57.4159367,95.6636426 57.0624483,95.3087765 C56.9247739,95.1731471 56.7591925,95.0802503 56.5898902,94.9966431 L56.5973321,94.9873534 C56.5824483,94.9780637 56.5657042,94.9780637 56.5508204,94.970632 C56.4875646,94.940905 56.4261693,94.9241835 56.361053,94.9018883 C55.7433786,94.6622144 55.0698902,94.7644009 54.5582623,95.1489939 C54.1359367,95.3570829 53.0643088,95.7602553 52.0987274,95.7844085 C51.133146,95.7602553 50.0633786,95.3570829 49.6391925,95.1489939 C49.1294251,94.7644009 48.4559367,94.6622144 47.8382623,94.9018883 C47.773146,94.9241835 47.7098902,94.940905 47.6484949,94.970632 C47.6336111,94.9780637 47.616867,94.9780637 47.6019832,94.9873534 L47.6094251,94.9947851 C47.4401228,95.0783923 47.2726809,95.1731471 47.136867,95.3087765 C46.7815181,95.6636426 46.5787274,96.1448483 46.5787274,96.6464914 C46.5787274,97.0756749 46.7405879,97.4398306 46.9917507,97.753822 C46.9954716,97.7575379 46.9973321,97.7612538 47.001053,97.7649697 C47.1480297,97.9470475 47.3247739,98.1124039 47.5294251,98.259181 C47.5740763,98.2907659 47.6224483,98.3204929 47.66896,98.3502199 C47.8029135,98.437543 47.9424483,98.5174343 48.0894251,98.5936097 C49.4382623,99.3014838 51.3266344,99.5671689 52.013146,99.5671689 C52.016867,99.5671689 52.0484949,99.5653109 52.0987274,99.563453 C52.14896,99.5653109 52.1805879,99.5671689 52.1843088,99.5671689 C52.8708204,99.5671689 54.7591925,99.3014838 56.1080297,98.5936097 C56.256867,98.5174343 56.3964018,98.437543 56.5284949,98.3502199 C56.5750065,98.3204929 56.6233786,98.2907659 56.6680297,98.259181 C56.8726809,98.1124039 57.0494251,97.9470475 57.1964018,97.7649697 C57.2001228,97.7612538 57.2019832,97.7575379 57.2057042,97.753822" id="Fill-104" fill="#FCCA80"></path>
                        <path d="M110.836402,31.5863574 C110.836402,41.7325531 102.594541,47.9770804 90.1164018,47.9770804 C73.6884949,47.9770804 65.5843088,40.3836906 65.5843088,30.2374949 C65.5843088,21.4773205 78.853146,9.58652174 92.7266344,22.1796208 C104.021518,32.4335768 110.836402,21.4401618 110.836402,31.5863574" id="Fill-110" fill="#B04122"></path>
                    </g>
                </g>
            </g>
        </g>
    </g>
</svg>