<?xml version="1.0" encoding="UTF-8" standalone="no"?>
<svg width="156px" height="224px" viewBox="0 0 156 224" version="1.1" xmlns="http://www.w3.org/2000/svg" xmlns:xlink="http://www.w3.org/1999/xlink">
    <!-- Generator: Sketch 42 (36781) - http://www.bohemiancoding.com/sketch -->
    <title>avatar_andrej</title>
    <desc>Created with Sketch.</desc>
    <defs>
        <polygon id="path-1" points="0.103790698 0.319153226 0.103790698 52.8272581 75.9560698 52.8272581 75.9560698 0.319153226"></polygon>
    </defs>
    <g id="Welcome" stroke="none" stroke-width="1" fill="none" fill-rule="evenodd">
        <g id="Desktop-HD" transform="translate(-527.000000, -1259.000000)">
            <g id="bios" transform="translate(61.000000, 1259.000000)">
                <g id="avatar_andrej" transform="translate(466.000000, 0.000000)">
                    <g id="shadow" transform="translate(0.000000, 205.854839)">
                        <ellipse id="Oval-Copy" fill="#F7F9FA" cx="78" cy="9.07258065" rx="78" ry="9.07258065"></ellipse>
                        <ellipse id="Oval" fill="#E9EAEC" cx="77.0930233" cy="9.07258065" rx="31.744186" ry="3.62903226"></ellipse>
                    </g>
                    <g id="boy" transform="translate(27.209302, 0.000000)">
                        <path d="M19.5208605,177.108367 C18.017093,177.108367 16.7999302,178.327722 16.7999302,179.830141 L16.7999302,190.717238 L22.2417907,190.717238 L22.2417907,179.830141 C22.2417907,178.327722 21.0246279,177.108367 19.5208605,177.108367 L19.5208605,177.108367 Z" id="Fill-1" fill="#BBBDBF"></path>
                        <path d="M79.390214,177.127782 C77.8991442,177.127782 76.6874233,178.338065 76.6874233,179.829597 L76.6874233,190.716694 L82.0911907,190.716694 L82.0911907,179.829597 C82.0911907,178.338065 80.8812837,177.127782 79.390214,177.127782" id="Fill-3" fill="#BBBDBF"></path>
                        <path d="M35.4433814,135.803448 C35.2601721,135.84881 35.0878465,135.90869 34.9046372,135.955867 C35.0824047,135.914133 35.265614,135.883286 35.4433814,135.845181 L35.4433814,135.803448 Z" id="Fill-5" fill="#D1D2D4"></path>
                        <path d="M64.6805023,136.238024 L64.6805023,142.097097 C64.6805023,150.532782 57.7711535,156.611411 49.3344558,156.593266 C40.8959442,156.611411 33.9865953,150.532782 33.9865953,142.097097 L33.9865953,136.214435 C15.2484558,141.383992 1.75082791,155.736815 1.75082791,172.673508 L1.75082791,187.27129 C1.75082791,189.174718 3.29268837,190.717056 5.19552558,190.717056 L16.799386,190.717056 L16.799386,179.82996 C16.799386,178.32754 18.0183628,177.108185 19.5203163,177.108185 C21.0240837,177.108185 22.2412465,178.32754 22.2412465,179.82996 L22.2412465,190.717056 L43.5824093,211.094073 C46.8039907,214.171492 51.8721767,214.184194 55.1100837,211.12129 L76.6870605,190.717056 L76.6870605,179.82996 C76.6870605,178.338427 77.8987814,177.128145 79.3898512,177.128145 C80.8809209,177.128145 82.0908279,178.338427 82.0908279,179.82996 L82.0908279,190.717056 L94.8374791,190.717056 C95.9403628,190.717056 96.8346419,189.8225 96.8346419,188.71746 L96.8346419,172.673508 C96.8346419,155.762218 83.3769209,141.425726 64.6805023,136.238024" id="Fill-7" fill="#D1D2D4"></path>
                        <path d="M63.1429953,135.803448 L63.1429953,135.827036 C63.2482047,135.850625 63.3570419,135.870585 63.4622512,135.894173 C63.353414,135.866956 63.2518326,135.830665 63.1429953,135.803448" id="Fill-9" fill="#D1D2D4"></path>
                        <path d="M49.3335488,156.592722 C57.7702465,156.612681 64.6795953,150.532238 64.6795953,142.096552 L64.6795953,136.23748 L64.6795953,136.14494 C64.2823395,136.046956 63.8651302,135.985262 63.4624326,135.894536 C63.3572233,135.869133 63.248386,135.850988 63.1431767,135.827399 C62.082014,135.593327 61.028107,135.346552 59.9415488,135.165101 C56.5186186,135.832843 52.992293,136.212077 49.3734558,136.212077 L49.2936419,136.212077 C45.6748047,136.212077 42.1484791,135.832843 38.7255488,135.165101 C37.6117814,135.350181 36.5306651,135.602399 35.444107,135.84373 C35.2645256,135.883649 35.0831302,135.914496 34.9053628,135.95623 C34.6024326,136.025181 34.2868047,136.070544 33.9856884,136.14494 L33.9856884,136.215706 L33.9856884,142.096552 C33.9856884,150.532238 40.8968512,156.612681 49.3335488,156.592722" id="Fill-11" fill="#BBBDBF"></path>
                        <path d="M49.2930977,105.012923 C43.2381209,105.012923 38.284214,109.968367 38.284214,116.025222 L38.284214,116.901633 C38.284214,110.844778 43.2381209,105.889335 49.2930977,105.889335 C55.3480744,105.889335 60.3019814,110.844778 60.3019814,116.901633 L60.3019814,116.025222 C60.3019814,109.968367 55.3480744,105.012923 49.2930977,105.012923" id="Fill-17" fill="#221F20"></path>
                        <path d="M38.2838512,133.091653 L38.2838512,135.165645 L38.2838512,136.042056 L38.2838512,140.952137 C38.2838512,147.008992 43.2377581,151.964435 49.2927349,151.964435 C55.3477116,151.964435 60.3034326,147.008992 60.3034326,140.952137 L60.3034326,136.042056 L60.3034326,135.165645 L60.3034326,133.091653 C56.8043163,134.096895 53.1147349,134.644879 49.2927349,134.644879 C45.4725488,134.644879 41.7811535,134.096895 38.2838512,133.091653" id="Fill-19" fill="#FFE1AD"></path>
                        <path d="M38.2838512,127.588044 L38.2838512,133.091472 C41.7811535,134.096714 45.4725488,134.644698 49.2927349,134.644698 C53.1147349,134.644698 56.8043163,134.096714 60.3034326,133.091472 L60.3034326,127.158004 C56.583014,128.306593 52.6322233,128.927157 48.5381302,128.927157 C44.9918512,128.927157 41.5562233,128.457198 38.2838512,127.588044" id="Fill-21" fill="#D7B48A"></path>
                        <path d="M88.3823442,62.8720565 L88.3823442,80.1789113 C88.6054605,80.1789113 88.819507,80.2115726 89.0444372,80.1952419 C93.8314605,79.8287097 97.4158326,75.649879 97.049414,70.8631855 C96.6993209,66.2996774 92.8827628,62.8720565 88.3823442,62.8720565" id="Fill-23" fill="#FCCA80"></path>
                        <path d="M8.02946512,62.8559073 C3.24244186,63.2224395 -0.340116279,67.3994556 0.0263023256,72.1879637 C0.374581395,76.7514718 4.19295349,80.1790927 8.69155814,80.1790927 L8.69155814,62.8722379 C8.47025581,62.8722379 8.25439535,62.8377621 8.02946512,62.8559073" id="Fill-25" fill="#FCCA80"></path>
                        <path d="M88.3823442,62.3750605 C96.2331349,53.7452218 98.0053674,40.7079234 91.861507,30.0639718 C90.0221581,26.8776815 85.9480186,25.7853427 82.7627163,27.6252621 L77.8251349,30.4776815 C84.3753209,37.5796976 88.3823442,47.0678024 88.3823442,57.4940121 L88.3823442,62.3750605 Z" id="Fill-27" fill="#A76A4A"></path>
                        <path d="M21.0451256,26.8246976 C17.8598233,24.9847782 13.7856837,26.0771169 11.9463349,29.2634073 C8.07535814,35.9698589 7.35884651,43.6234879 9.31066047,50.5295363 C10.9160093,41.4224798 15.608707,33.3859879 22.2731721,27.5341734 L21.0451256,26.8246976 Z" id="Fill-29" fill="#A76A4A"></path>
                        <path d="M88.3823442,62.3750605 L88.3823442,57.4940121 C88.3823442,47.0678024 84.3753209,37.5796976 77.8251349,30.4776815 C70.5439256,22.5845363 60.1191349,17.6363508 48.5370419,17.6363508 C38.4732279,17.6363508 29.2873674,21.3778831 22.2728093,27.5345363 C15.6083442,33.3863508 10.9156465,41.4228427 9.31029767,50.5298992 C8.91122791,52.7926008 8.69173953,55.116996 8.69173953,57.4940121 L8.69173953,62.8722379 L8.69173953,80.1790927 L8.69173953,88.6601411 L8.70262326,88.6601411 C8.7008093,88.7980444 8.69173953,88.9323185 8.69173953,89.0684073 C8.69173953,107.534738 21.2479256,123.061552 38.2845767,127.58877 C41.5569488,128.457923 44.9907628,128.926069 48.5370419,128.926069 C52.6329488,128.926069 56.5837395,128.307319 60.3023442,127.15873 C76.5644372,122.137964 88.3823442,106.98494 88.3823442,89.0684073 C88.3823442,88.9323185 88.3732744,88.7980444 88.3714605,88.6601411 L88.3823442,88.6601411 L88.3823442,80.1790927 L88.3823442,62.8722379 L88.3823442,62.3750605 Z" id="Fill-31" fill="#FFE1AD"></path>
                        <path d="M68.1948558,86.9065927 C62.7602512,86.9065927 58.3378326,82.4828024 58.3378326,77.0465121 C58.3378326,71.6084073 62.7602512,67.1846169 68.1948558,67.1846169 C73.6294605,67.1846169 78.0518791,71.6084073 78.0518791,77.0465121 C78.0518791,82.4828024 73.6294605,86.9065927 68.1948558,86.9065927 M29.851507,86.9065927 C24.4150884,86.9065927 19.9944837,82.4828024 19.9944837,77.0465121 C19.9944837,71.6084073 24.4150884,67.1846169 29.851507,67.1846169 C35.2861116,67.1846169 39.7085302,71.6084073 39.7085302,77.0465121 C39.7085302,82.4828024 35.2861116,86.9065927 29.851507,86.9065927 M55.9162047,71.5140524 L54.6682047,71.1547782 C51.3559256,70.1985282 47.8513674,70.1985282 44.5372744,71.1547782 L42.2716465,71.808004 C40.223693,66.966875 35.4276,63.5628427 29.851507,63.5628427 C22.4179256,63.5628427 16.3720186,69.610625 16.3720186,77.0465121 C16.3720186,84.4805847 22.4179256,90.5301815 29.851507,90.5301815 C37.2850884,90.5301815 43.3309953,84.4805847 43.3309953,77.0465121 C43.3309953,76.4567944 43.2802047,75.8797782 43.2058326,75.3082056 L45.5422047,74.6350202 C48.1978326,73.8674798 51.0076465,73.8674798 53.6650884,74.6350202 L54.889507,74.9888508 C54.7861116,75.6620363 54.7153674,76.3442944 54.7153674,77.0465121 C54.7153674,84.4805847 60.7612744,90.5301815 68.1948558,90.5301815 C75.6284372,90.5301815 81.6743442,84.4805847 81.6743442,77.0465121 C81.6743442,69.610625 75.6284372,63.5628427 68.1948558,63.5628427 C62.7330419,63.5628427 58.0312744,66.8326008 55.9162047,71.5140524 Z" id="Fill-40" fill="#2D2D2D"></path>
                        <path d="M73.7906233,77.3509879 C73.7906233,78.8534073 72.5716465,80.0727621 71.069693,80.0727621 C69.5677395,80.0727621 68.3487628,78.8534073 68.3487628,77.3509879 C68.3487628,75.8485685 69.5677395,74.6292137 71.069693,74.6292137 C72.5716465,74.6292137 73.7906233,75.8485685 73.7906233,77.3509879" id="Fill-42" fill="#2D2D2D"></path>
                        <path d="M35.6976,77.3509879 C35.6976,78.8534073 34.4786233,80.0727621 32.9766698,80.0727621 C31.4747163,80.0727621 30.2557395,78.8534073 30.2557395,77.3509879 C30.2557395,75.8485685 31.4747163,74.6292137 32.9766698,74.6292137 C34.4786233,74.6292137 35.6976,75.8485685 35.6976,77.3509879" id="Fill-44" fill="#2D2D2D"></path>
                        <path d="M18.2688698,63.6933065 C19.3587013,62.3671519 20.0269194,59.1508354 22.7906977,58.586548 C25.554476,58.0222606 28.8653152,60.0534826 33.0126837,61.0150806 C33.9867767,61.2473387 34.9663116,60.6358468 35.1912419,59.6596371 C35.417986,58.6834274 34.8103116,57.7072177 33.8344047,57.4822177 C29.1653162,56.396296 24.9462498,54.1721 21.7906977,55 C18.6351456,55.8279 17.2484418,59.222699 15.4681256,61.3852419 C14.8314279,62.1600403 14.9420791,63.3031855 15.7148233,63.9400806 C16.0540326,64.2195161 16.4603581,64.3537903 16.8666837,64.3537903 C17.3909163,64.3537903 17.909707,64.1287903 18.2688698,63.6933065 Z" id="Fill-55" fill="#A76A49"></path>
                        <path d="M63.4237953,61.0154435 C72.756586,58.8489113 76.2067256,61.3075806 78.1676093,63.6936694 C78.5267721,64.1291532 79.0455628,64.3541532 79.5697953,64.3541532 C79.9761209,64.3541532 80.3842605,64.219879 80.7216558,63.9404435 C81.4944,63.3035484 81.6050512,62.1604032 80.9701674,61.3856048 C77.1191442,56.7041532 71.2854698,55.4575806 62.6020744,57.4825806 C61.6279814,57.7075806 61.020307,58.6837903 61.2470512,59.66 C61.4719814,60.6362097 62.4551442,61.2495161 63.4237953,61.0154435" id="Fill-57" fill="#A76A49"></path>
                        <path d="M49.407906,132.641921 C54.717566,132.641921 59.5470971,129.898028 62.5408415,125.400486 C56.0691891,124.506213 42.7466229,124.506213 36.2709358,125.400486 C39.2646802,129.898028 44.0942113,132.641921 49.407906,132.641921 Z" id="Fill-165" fill="#845034"></path>
                        <path d="M53.6050465,89.6076815 C52.2336977,90.003246 50.7843488,90.2155444 49.2860233,90.2155444 C47.7913256,90.2155444 46.3474186,90.0050605 44.9815116,89.613125" id="Fill-35" fill="#FCCA80"></path>
                        <path d="M49.2854791,92.0306048 C47.6529209,92.0306048 46.0366884,91.8037903 44.4803163,91.3556048 C43.517107,91.0797984 42.9602233,90.0745565 43.2377581,89.1110484 C43.5134791,88.1475403 44.5184093,87.5959274 45.4816186,87.8681048 C47.9467814,88.5775806 50.6314326,88.5775806 53.1020372,87.8644758 C54.0670605,87.5904839 55.0719907,88.1420968 55.3477116,89.1074194 C55.6252465,90.0691129 55.0701767,91.0761694 54.1069674,91.3519758 C52.5433395,91.8019758 50.9216651,92.0306048 49.2854791,92.0306048" id="Fill-37" fill="#FCCA80"></path>
                        <path d="M58.9654605,101.383891 C61.6718791,101.383891 63.4894605,104.14377 62.4845302,106.656875 C60.3912279,111.891754 55.2740651,115.589738 49.2934605,115.589738 C43.3128558,115.589738 38.195693,111.891754 36.1023907,106.656875 C35.0974605,104.14377 36.9150419,101.383891 39.6214605,101.383891 L58.9654605,101.383891 Z" id="Fill-45" fill="#473A4F"></path>
                        <path d="M73.6530419,95.8405444 C73.6530419,97.1651411 71.5053209,98.2393347 68.8569488,98.2393347 C66.2085767,98.2393347 64.0626698,97.1651411 64.0626698,95.8405444 C64.0626698,94.5159476 66.2085767,93.441754 68.8569488,93.441754 C71.5053209,93.441754 73.6530419,94.5159476 73.6530419,95.8405444" id="Fill-47" fill="#FBC39C"></path>
                        <path d="M33.0123209,95.8405444 C33.0123209,97.1651411 30.8646,98.2393347 28.2162279,98.2393347 C25.5678558,98.2393347 23.4219488,97.1651411 23.4219488,95.8405444 C23.4219488,94.5159476 25.5678558,93.441754 28.2162279,93.441754 C30.8646,93.441754 33.0123209,94.5159476 33.0123209,95.8405444" id="Fill-49" fill="#FBC39C"></path>
                        <path d="M55.6898233,106.245343 L42.9776372,106.245343 C40.8099628,106.245343 39.0522419,104.487077 39.0522419,102.320544 L39.0522419,101.384254 L59.6134047,101.384254 L59.6134047,102.320544 C59.6134047,104.487077 57.8574977,106.245343 55.6898233,106.245343" id="Fill-51" fill="#FEFEFE"></path>
                        <path d="M49.2954558,110.328004 C46.5309907,110.328004 44.0930372,111.765101 42.6708977,113.924375 C44.6517349,114.973165 46.8974093,115.590101 49.2954558,115.590101 C51.6935023,115.590101 53.9391767,114.973165 55.920014,113.924375 C54.4978744,111.765101 52.0599209,110.328004 49.2954558,110.328004" id="Fill-53" fill="#F3795D"></path>
                        <path d="M90.4250372,36.4599597 C89.4799674,45.5652016 77.8180605,56.7952419 52.1125256,56.7952419 C26.4088047,56.7952419 13.8018279,42.8706452 13.8018279,27.3928226 C13.8018279,27.3928226 22.5976884,25.8831452 48.3032233,25.8831452 C74.0069442,25.8831452 92.0213163,21.0656048 90.4250372,36.4599597" id="Fill-55" fill="#845034"></path>
                        <g id="Group-59" transform="translate(13.697674, 0.495363)">
                            <mask id="mask-2" fill="white">
                                <use xlink:href="#path-1"></use>
                            </mask>
                            <g id="Clip-58"></g>
                            <path d="M75.9560698,25.3064919 C75.9560698,42.3429839 62.141,52.8272581 41.2243023,52.8272581 C13.6884884,52.8272581 0.103790698,40.0784677 0.103790698,23.0419758 C0.103790698,8.33350806 22.3464884,-11.6316129 45.5995581,9.51294355 C64.5336047,26.7290726 75.9560698,8.27 75.9560698,25.3064919" id="Fill-57" fill="#A76A4A" mask="url(#mask-2)"></path>
                        </g>
                    </g>
                </g>
            </g>
        </g>
    </g>
</svg>