<?xml version="1.0" encoding="UTF-8" standalone="no"?>
<svg width="32px" height="26px" viewBox="0 0 32 26" version="1.1" xmlns="http://www.w3.org/2000/svg" xmlns:xlink="http://www.w3.org/1999/xlink">
    <!-- Generator: Sketch 42 (36781) - http://www.bohemiancoding.com/sketch -->
    <title>ico_close</title>
    <desc>Created with Sketch.</desc>
    <defs></defs>
    <g id="Welcome" stroke="none" stroke-width="1" fill="none" fill-rule="evenodd">
        <g id="Desktop-HD---Menu" transform="translate(-1358.000000, -51.000000)" fill="#FFFFFF">
            <g id="overlay">
                <g id="ico_close" transform="translate(1358.000000, 47.000000)">
                    <path d="M-0.883223952,16.3395594 C-0.883223952,16.3395594 31.04229,10.4492222 33.1289337,12.6992222 C35.2155774,14.9492222 33.1289337,17.1992222 33.1289337,17.1992222 C33.1289337,17.1992222 1.71573188,18.3593022 -0.883223952,20.8395594 C-3.48217979,23.3198165 -0.883223952,16.3395594 -0.883223952,16.3395594 Z" id="Path-2" transform="translate(16.009008, 16.779761) rotate(45.000000) translate(-16.009008, -16.779761) "></path>
                    <path d="M-0.883223952,16.3395594 C-0.883223952,16.3395594 31.04229,10.4492222 33.1289337,12.6992222 C35.2155774,14.9492222 33.1289337,17.1992222 33.1289337,17.1992222 C33.1289337,17.1992222 1.71573188,18.3593022 -0.883223952,20.8395594 C-3.48217979,23.3198165 -0.883223952,16.3395594 -0.883223952,16.3395594 Z" id="Path-2" transform="translate(16.009008, 16.779761) scale(-1, 1) rotate(45.000000) translate(-16.009008, -16.779761) "></path>
                </g>
            </g>
        </g>
    </g>
</svg>