<?xml version="1.0" encoding="UTF-8" standalone="no"?>
<svg width="87px" height="126px" viewBox="0 0 87 126" version="1.1" xmlns="http://www.w3.org/2000/svg" xmlns:xlink="http://www.w3.org/1999/xlink">
    <!-- Generator: Sketch 42 (36781) - http://www.bohemiancoding.com/sketch -->
    <title>logo_drej-mark</title>
    <desc>Created with Sketch.</desc>
    <defs></defs>
    <g id="Symbols" stroke="none" stroke-width="1" fill="none" fill-rule="evenodd">
        <g id="header" transform="translate(-676.000000, -503.000000)">
            <g id="logo_drej-mark">
                <g transform="translate(676.000000, 503.000000)">
                    <path d="M86.9444544,43.7729561 C86.9444544,39.4798206 85.5234973,35.0667328 80.3640924,35.0667328 C75.2046876,35.0667328 72.5999209,38.7852575 72.5999209,45.1349963 C72.5999209,53.3788225 66.8678915,69.3692526 44.3639405,69.3692526 C29.4834149,69.3692526 14.3503176,60.2934985 14.3503176,48.2885839 C14.3503176,43.9393417 13.3072541,41.0275937 9.09836745,41.0275937 C5.73010131,41.0275937 4.48459477,44.0225345 4.48459477,48.7200256 C4.48459477,55.7914137 9.30081047,69.9574063 20.7243805,78.0851495 C6.87342233,85.6402166 0.705658506,99.1871001 0.705658506,110.247873 C0.705658506,114.541009 2.12468763,116.787214 7.28409244,116.787214 C12.4454253,116.787214 13.968568,113.366636 13.968568,108.885833 C13.968568,100.643941 25.0393088,86.1780677 40.5850042,86.1780677 C60.2701773,86.1780677 67.8993869,96.6797077 67.8993869,115.483215 C67.8993869,121.920016 72.1815386,125.996464 76.3904253,125.996464 C80.60124,125.996464 83.7034382,122.13477 83.7034382,115.595429 C83.7034382,99.0748865 78.3647267,85.3635522 67.1146792,78.0367816 C80.4894143,70.6500348 86.9444544,57.5287889 86.9444544,43.7729561" id="Fill-1" fill="#FFFFFF"></path>
                    <path d="M47.2675517,26.7397138 C54.3665534,26.7397138 57.4571834,32.3774771 57.4571834,37.7753356 C57.4571834,43.0609805 52.9725886,47.8726199 46.617806,47.8726199 C41.8227986,47.8726199 37.0663518,43.691698 37.0663518,37.6263624 C37.0663518,30.1989866 40.2109667,26.7397138 47.2675517,26.7397138 Z M45.8003219,58.6296425 C58.5773681,58.6296425 66.5574789,48.9096278 66.5574789,36.2565833 C66.5574789,25.9967828 59.8286587,16.5011952 46.010477,16.5011952 C36.3664774,16.5011952 25.4094903,22.4117535 25.4094903,39.58623 C25.4094903,49.8460305 33.0213476,58.6296425 45.8003219,58.6296425 L45.8003219,58.6296425 Z" id="Fill-2" fill="#FFFFFF"></path>
                    <path d="M63.5728905,13.0786821 C67.4771486,13.0786821 70.4559529,10.1088926 70.4559529,6.24139475 C70.4559529,3.10715436 67.8588983,0.205079927 63.6365154,0.205079927 C60.6885595,0.205079927 57.3395737,2.01210494 57.3395737,7.25905552 C57.3395737,10.3952306 59.6667043,13.0786821 63.5728905,13.0786821" id="Fill-3" fill="#F07F35"></path>
                </g>
            </g>
        </g>
    </g>
</svg>