<?xml version="1.0" encoding="UTF-8" standalone="no"?>
<svg width="158px" height="60px" viewBox="0 0 158 60" version="1.1" xmlns="http://www.w3.org/2000/svg" xmlns:xlink="http://www.w3.org/1999/xlink">
    <!-- Generator: Sketch 42 (36781) - http://www.bohemiancoding.com/sketch -->
    <title>logo_drej-type</title>
    <desc>Created with Sketch.</desc>
    <defs></defs>
    <g id="Symbols" stroke="none" stroke-width="1" fill="none" fill-rule="evenodd">
        <g id="header" transform="translate(-50.000000, -36.000000)">
            <g id="logo_drej-type">
                <g transform="translate(50.000000, 36.000000)">
                    <path d="M137.929353,34.0181538 C134.491459,34.0181538 132.375188,32.0326154 132.375188,28.3726154 C132.375188,23.1516923 136.047294,18.8270769 138.642212,18.8270769 C142.359859,18.8270769 144.197306,21.9775385 144.197306,25.236 C144.197306,30.0526154 142.453729,34.0181538 137.929353,34.0181538 Z M138.263012,14.0427692 C133.813918,14.0427692 127.890776,17.7212308 126.776412,26.0556923 C125.3256,28.8978462 122.531788,34.5581538 116.833565,34.5581538 C113.978412,34.5581538 112.008988,32.5541538 112.008988,28.4732308 C112.008988,22.1538462 114.167082,18.5095385 118.290882,18.5095385 C121.207376,18.5095385 123.042035,20.1996923 123.042035,20.8633846 C123.042035,21.5436923 123.4454,22.0301538 124.362729,22.0301538 C125.280059,22.0301538 125.623941,21.2630769 125.623941,20.5624615 C125.623941,16.5249231 121.633976,13.8313846 118.157047,13.8313846 C111.902106,13.8313846 106.120235,18.5003077 106.120235,29.1387692 C106.120235,34.7446154 110.039565,39.1236923 115.681094,39.1236923 C121.424859,39.1236923 125.036553,35.4046154 126.881435,31.6956923 C127.897282,36.2289231 131.521988,38.9123077 137.014812,38.9123077 C143.547647,38.9123077 147.627765,33.2870769 147.627765,25.6495385 C147.627765,19.4584615 145.327471,14.0427692 138.263012,14.0427692 L138.263012,14.0427692 Z" id="Fill-1" fill="#FFFFFF"></path>
                    <path d="M89.7365647,36.4181538 C86.3144706,36.4181538 84.6452471,35.1443077 84.6452471,32.8366154 C84.6452471,31.0633846 85.7289412,29.5015385 87.3200941,27.9941538 C89.1017765,30.5889231 91.2747412,33.0341538 93.5545882,35.1193846 C92.0238471,35.9261538 90.6446,36.4181538 89.7365647,36.4181538 Z M89.1305882,16.8572308 C89.1305882,12.9341538 90.3081529,10.4141538 93.2962118,10.4141538 C95.1884941,10.4141538 96.0807294,12.2612308 96.0807294,14.1415385 C96.0807294,16.2156923 92.983,18.0009231 89.4131294,20.1203077 C89.2309647,19.0532308 89.1305882,17.9630769 89.1305882,16.8572308 Z M105.794941,39.24 C104.177765,39.24 101.727835,38.0510769 99.2007647,36.0046154 C101.462953,33.6129231 103.116376,30.7329231 104.337624,28.4713846 C105.643447,26.052 103.336647,25.3633846 102.341247,27.2123077 C101.281718,29.3390769 98.8819765,31.6172308 96.3818588,33.3766154 C94.2386353,31.0929231 92.2487647,28.26 90.8974,25.0883077 C95.1383059,21.912 99.9777529,18.5243077 99.9777529,13.4436923 C99.9777529,9.29076923 96.9395059,6.108 92.2329647,6.108 C86.7736,6.108 82.8951647,9.94430769 82.8951647,16.1529231 C82.8951647,18.4264615 83.5271647,20.8264615 84.5959882,23.208 C81.4248353,25.5323077 78.8364235,28.368 78.8364235,32.1941538 C78.8364235,37.4861538 84.6582588,40.6430769 89.3852471,40.6430769 C92.4151294,40.6430769 94.9347647,39.5621538 97.0361647,37.9633846 C100.206388,40.2507692 103.311553,41.664 105.623,41.664 C107.400035,41.664 107.481824,39.24 105.794941,39.24 L105.794941,39.24 Z" id="Fill-2" fill="#F07F35"></path>
                    <path d="M53.6121882,18.2981538 C55.6104235,18.2981538 56.3929882,19.0781538 56.4487529,20.3603077 C56.3204941,23.2421538 51.0525882,25.9975385 46.2995765,26.7664615 C47.2531529,21.6526154 51.3379176,18.2981538 53.6121882,18.2981538 Z M72.6985882,14.0113846 C63.3282588,14.0113846 61.4722235,35.0455385 50.3750471,35.0455385 C48.2913059,35.0455385 46.5384353,32.6353846 46.1583059,30.432 C52.9086235,29.6926154 60.0176941,25.7215385 60.0176941,19.5969231 C60.0176941,16.008 56.5825882,14.2541538 53.5025176,14.2541538 C47.2996235,14.2541538 42.4862,19.8387692 41.1413412,26.5938462 C39.7026118,26.1055385 38.7685529,25.128 38.7685529,23.5163077 C38.7685529,19.7501538 40.7091647,17.9353846 40.7091647,16.9661538 C40.7091647,15.3516923 39.9758588,14.7230769 37.9720471,14.7230769 C35.2906941,14.7230769 32.7692,18.0138462 32.2868353,18.0138462 C31.8044706,18.0138462 32.3444588,17.1756923 32.3444588,16.548 C32.3444588,15.1116923 30.7570235,14.0427692 27.9409059,14.0427692 C25.3246118,14.0427692 22.6358235,29.6030769 22.6358235,36.5150769 C22.6358235,38.28 23.6684,38.6907692 25.9501059,38.6907692 C29.3536118,38.6907692 26.6490235,20.2578462 34.7479176,20.2578462 C34.7479176,20.2578462 34.2525412,21.4366154 34.2525412,23.7221538 C34.2525412,27.4652308 37.0324118,29.5615385 40.7667882,30.2769231 C40.7667882,30.3193846 40.7649294,30.3627692 40.7649294,30.4052308 C40.7649294,34.4612308 43.4221176,39.1236923 49.2002706,39.1236923 C63.5094941,39.1236923 64.2084118,19.8101538 69.8369294,19.8101538 C69.8369294,22.4446154 66.4966235,54.1550769 61.6042,54.1550769 C60.8708941,54.1550769 59.9210353,53.22 59.9210353,51.0886154 C59.9210353,42.1375385 64.5262706,38.0584615 66.2865765,36.4689231 C66.8219176,35.9852308 66.0923294,35.7738462 65.6573647,35.8587692 C62.2808118,36.2483077 56.6671647,43.3947692 56.6671647,51.2676923 C56.6671647,55.2101538 58.9972,59.6584615 61.5781765,59.6584615 C70.1510706,59.6584615 77.1504706,29.688 77.1504706,18.1144615 C77.1504706,15.5030769 75.2442471,14.0113846 72.6985882,14.0113846 L72.6985882,14.0113846 Z" id="Fill-3" fill="#FFFFFF"></path>
                    <path d="M8.74855294,34.9181538 C7.11836471,34.9181538 5.30601176,33.0941538 5.30601176,30.2113846 C5.30601176,22.8286154 8.99391765,19.5664615 12.6251294,19.5664615 C13.6391176,19.5664615 14.8789529,20.1535385 15.6131882,21.2067692 C15.1717176,24.2898462 14.8315529,27.4116923 14.6261529,30.3332308 C13.6456235,32.5735385 11.7440471,34.9181538 8.74855294,34.9181538 Z M21.2166118,40.4446154 C19.8559529,40.4446154 19.8513059,37.7390769 19.8513059,37.7390769 C19.8513059,18.7412308 25.4919059,8.27169231 25.4919059,3.94430769 C25.4919059,1.64861538 24.2046706,0.553846154 22.3718706,0.553846154 C20.2528118,0.553846154 18.0278,7.54153846 16.4691765,15.9683077 C15.4347412,15.3470769 14.1270588,14.8883077 12.5154588,14.8883077 C6.83861176,14.8883077 0.415447059,19.9587692 0.415447059,29.9824615 C0.415447059,34.0384615 2.98712941,39.7578462 7.99944706,39.7578462 C10.9549765,39.7578462 13.0656706,37.5323077 14.4133176,35.0981538 L14.4133176,35.1203077 L14.4049529,35.1166154 C14.4049529,35.2292308 14.4068118,35.3381538 14.4086706,35.448 C14.4058824,35.6649231 14.4049529,35.8809231 14.4049529,36.0932308 C14.4049529,37.56 14.5434353,38.9224615 15.0007059,39.8870769 C16.8586,45.8953846 22.4229882,42.9692308 22.4229882,41.6030769 C22.4229882,40.6707692 21.6376353,40.4446154 21.2166118,40.4446154 L21.2166118,40.4446154 Z" id="Fill-4" fill="#FFFFFF"></path>
                    <path d="M74.0257882,4.29138462 C72.5034118,4.29138462 70.7719176,5.21446154 70.7719176,7.89969231 C70.7719176,9.50307692 71.9745765,10.8766154 73.9923294,10.8766154 C76.0110118,10.8766154 77.5501176,9.35723077 77.5501176,7.37907692 C77.5501176,5.77569231 76.2089765,4.29138462 74.0257882,4.29138462" id="Fill-5" fill="#FFFFFF"></path>
                    <path d="M150.304471,35.4323077 C150.304471,37.0366154 151.5062,38.4092308 153.524882,38.4092308 C155.542635,38.4092308 157.082671,36.8898462 157.082671,34.9116923 C157.082671,33.3083077 155.7406,31.824 153.558341,31.824 C152.035035,31.824 150.304471,32.748 150.304471,35.4323077 Z" id="Fill-6" fill="#FFFFFF"></path>
                </g>
            </g>
        </g>
    </g>
</svg>