<?xml version="1.0" encoding="UTF-8" standalone="no"?>
<svg width="280px" height="280px" viewBox="0 0 280 280" version="1.1" xmlns="http://www.w3.org/2000/svg" xmlns:xlink="http://www.w3.org/1999/xlink">
    <!-- Generator: Sketch 42 (36781) - http://www.bohemiancoding.com/sketch -->
    <title>logo_toitoi</title>
    <desc>Created with Sketch.</desc>
    <defs>
        <rect id="path-1" x="0" y="0" width="250" height="250"></rect>
        <mask id="mask-2" maskContentUnits="userSpaceOnUse" maskUnits="objectBoundingBox" x="-15" y="-15" width="280" height="280">
            <rect x="-15" y="-15" width="280" height="280" fill="white"></rect>
            <use xlink:href="#path-1" fill="black"></use>
        </mask>
    </defs>
    <g id="Welcome" stroke="none" stroke-width="1" fill="none" fill-rule="evenodd">
        <g id="Desktop-HD" transform="translate(-940.000000, -535.000000)">
            <g id="hero" transform="translate(88.000000, 550.000000)">
                <g id="logo_toitoi" transform="translate(867.000000, 0.000000)">
                    <g id="Rectangle-2">
                        <use fill="#FFFFFF" fill-rule="evenodd" xlink:href="#path-1"></use>
                        <use stroke="#FFFFFF" mask="url(#mask-2)" stroke-width="30" xlink:href="#path-1"></use>
                    </g>
                    <g id="02---Logo---Dark" fill-rule="nonzero" fill="#27242E">
                        <g id="Layer_1">
                            <path d="M243.97561,5.98780488 L243.97561,243.902439 L5.98780488,243.902439 L5.98780488,5.98780488 L243.97561,5.98780488 L243.97561,5.98780488 Z M250,0 L0,0 L0,250 L250,250 L250,0 L250,0 Z" id="Shape"></path>
                            <polygon id="Shape" stroke="#27242E" points="77.8536585 75.7682927 77.8536585 115.170732 66.1585366 115.170732 66.1585366 75.7682927 55.1829268 75.7682927 55.1829268 66.2195122 88.8536585 66.2195122 88.8536585 75.7560976 77.8780488 75.7560976"></polygon>
                            <path d="M151.914634,72.2439024 C156.955733,77.0452951 159.808841,83.7028776 159.808841,90.6646341 C159.808841,97.6263907 156.955733,104.283973 151.914634,109.085366 C147.207317,113.487805 140.841463,116.280488 132.341463,116.280488 C122.853659,116.280488 116.402439,112.621951 112.609756,109.085366 C107.544103,104.395432 104.681198,97.7934932 104.719512,90.8902439 C104.809629,83.9203696 107.608816,77.2591782 112.52439,72.3170732 C115.939024,69.0121951 122.280488,65.1219512 132.329268,65.1219512 C140.243902,65.1219512 146.829268,67.4756098 151.914634,72.2439024 Z M121.182927,79.7317073 C118.19402,82.6299825 116.568543,86.6560269 116.707317,90.8170732 C116.590682,94.973891 118.281011,98.9773018 121.341463,101.792683 C124.283307,104.520384 128.185822,105.971769 132.195122,105.829268 C136.346475,105.985074 140.388692,104.479667 143.426829,101.646341 C146.395223,98.7849573 147.997538,94.7902665 147.829268,90.6707317 C147.906823,86.5673105 146.318518,82.6075467 143.426829,79.695122 C140.356428,76.9624943 136.378395,75.4712754 132.268293,75.5121951 C128.166394,75.43135 124.192877,76.9438216 121.182927,79.7317073 L121.182927,79.7317073 Z" id="Shape" stroke="#27242E"></path>
                            <polygon id="Shape" stroke="#27242E" points="194.792683 66.2195122 194.792683 115.170732 183.109756 115.170732 183.109756 66.2195122"></polygon>
                            <polygon id="Shape" stroke="#27242E" points="77.8536585 144.304878 77.8536585 183.719512 66.1585366 183.719512 66.1585366 144.304878 55.1829268 144.304878 55.1829268 134.768293 88.8536585 134.768293 88.8536585 144.304878 77.8780488 144.304878"></polygon>
                            <path d="M151.914634,140.780488 C156.955733,145.58188 159.808841,152.239463 159.808841,159.20122 C159.808841,166.162976 156.955733,172.820559 151.914634,177.621951 C147.207317,182.02439 140.841463,184.817073 132.341463,184.817073 C122.853659,184.817073 116.402439,181.158537 112.609756,177.621951 C107.544103,172.932018 104.681198,166.330079 104.719512,159.426829 C104.812879,152.455233 107.61654,145.793803 112.536585,140.853659 C115.95122,137.54878 122.292683,133.658537 132.341463,133.658537 C140.243902,133.670732 146.829268,136.012195 151.914634,140.780488 Z M121.182927,148.268293 C118.19402,151.166568 116.568543,155.192612 116.707317,159.353659 C116.590682,163.510476 118.281011,167.513887 121.341463,170.329268 C124.283307,173.056969 128.185822,174.508354 132.195122,174.365854 C136.346475,174.52166 140.388692,173.016252 143.426829,170.182927 C146.395223,167.321543 147.997538,163.326852 147.829268,159.207317 C147.906823,155.103896 146.318518,151.144132 143.426829,148.231707 C140.356428,145.49908 136.378395,144.007861 132.268293,144.04878 C128.166394,143.967935 124.192877,145.480407 121.182927,148.268293 L121.182927,148.268293 Z" id="Shape" stroke="#27242E"></path>
                            <polygon id="Shape" stroke="#27242E" points="194.792683 134.768293 194.792683 183.719512 183.109756 183.719512 183.109756 134.768293"></polygon>
                        </g>
                    </g>
                </g>
            </g>
        </g>
    </g>
</svg>