<?xml version="1.0" encoding="UTF-8" standalone="no"?>
<svg width="280px" height="280px" viewBox="0 0 280 280" version="1.1" xmlns="http://www.w3.org/2000/svg" xmlns:xlink="http://www.w3.org/1999/xlink">
    <!-- Generator: Sketch 42 (36781) - http://www.bohemiancoding.com/sketch -->
    <title>logo_schmopera</title>
    <desc>Created with Sketch.</desc>
    <defs>
        <rect id="path-1" x="0" y="0" width="250" height="250"></rect>
        <mask id="mask-2" maskContentUnits="userSpaceOnUse" maskUnits="objectBoundingBox" x="-15" y="-15" width="280" height="280">
            <rect x="-15" y="-15" width="280" height="280" fill="white"></rect>
            <use xlink:href="#path-1" fill="black"></use>
        </mask>
    </defs>
    <g id="Welcome" stroke="none" stroke-width="1" fill="none" fill-rule="evenodd">
        <g id="Desktop-HD" transform="translate(-220.000000, -535.000000)">
            <g id="hero" transform="translate(88.000000, 550.000000)">
                <g id="logo_schmopera" transform="translate(147.000000, 0.000000)">
                    <g id="Rectangle-2">
                        <use fill="#FFFFFF" fill-rule="evenodd" xlink:href="#path-1"></use>
                        <use stroke="#FFFFFF" mask="url(#mask-2)" stroke-width="30" xlink:href="#path-1"></use>
                    </g>
                    <g id="Layer_1">
                        <g id="Group" transform="translate(22.058824, 22.058824)" fill-rule="nonzero" fill="#222222">
                            <path d="M41.3235294,14.1176471 C40.8823529,14.8529412 40.4411765,15.4411765 39.8529412,15.7352941 C39.4117647,16.0294118 38.6764706,16.3235294 37.9411765,16.3235294 C37.2058824,16.3235294 36.4705882,16.1764706 35.7352941,15.7352941 C35,15.2941176 33.9705882,14.8529412 33.0882353,14.2647059 C32.0588235,13.6764706 30.8823529,13.2352941 29.7058824,12.7941176 C28.3823529,12.3529412 26.9117647,12.2058824 25.2941176,12.2058824 C22.5,12.2058824 20.2941176,12.7941176 18.9705882,13.9705882 C17.6470588,15.1470588 16.9117647,16.7647059 16.9117647,18.9705882 C16.9117647,20.2941176 17.3529412,21.3235294 18.2352941,22.2058824 C19.1176471,23.0882353 20.1470588,23.8235294 21.4705882,24.4117647 C22.7941176,25 24.4117647,25.5882353 26.1764706,26.1764706 C27.9411765,26.7647059 29.7058824,27.3529412 31.6176471,27.9411765 C33.3823529,28.5294118 35.2941176,29.4117647 37.0588235,30.1470588 C38.8235294,31.0294118 40.4411765,32.0588235 41.7647059,33.5294118 C43.0882353,34.8529412 44.2647059,36.4705882 45,38.5294118 C45.8823529,40.4411765 46.3235294,42.7941176 46.3235294,45.5882353 C46.3235294,48.6764706 45.7352941,51.4705882 44.7058824,54.1176471 C43.6764706,56.7647059 42.2058824,59.1176471 40.1470588,61.0294118 C38.0882353,62.9411765 35.7352941,64.5588235 32.7941176,65.7352941 C29.8529412,66.9117647 26.6176471,67.3529412 22.7941176,67.3529412 C20.7352941,67.3529412 18.6764706,67.2058824 16.6176471,66.7647059 C14.5588235,66.3235294 12.5,65.7352941 10.4411765,65 C8.52941176,64.2647059 6.61764706,63.3823529 4.85294118,62.2058824 C3.08823529,61.1764706 1.61764706,60 0.294117647,58.6764706 L4.85294118,51.6176471 C5.14705882,51.0294118 5.58823529,50.5882353 6.17647059,50.2941176 C6.76470588,50 7.35294118,49.8529412 8.08823529,49.8529412 C8.97058824,49.8529412 9.85294118,50.1470588 10.8823529,50.7352941 C11.7647059,51.3235294 12.7941176,51.9117647 13.9705882,52.6470588 C15.1470588,53.3823529 16.4705882,53.9705882 17.9411765,54.5588235 C19.4117647,55.1470588 21.1764706,55.4411765 23.2352941,55.4411765 C26.0294118,55.4411765 28.0882353,54.8529412 29.7058824,53.6764706 C31.1764706,52.5 32.0588235,50.5882353 32.0588235,47.9411765 C32.0588235,46.4705882 31.6176471,45.1470588 30.7352941,44.2647059 C29.8529412,43.2352941 28.8235294,42.5 27.5,41.9117647 C26.1764706,41.3235294 24.5588235,40.7352941 22.7941176,40.2941176 C21.0294118,39.8529412 19.2647059,39.2647059 17.5,38.6764706 C15.7352941,38.0882353 13.8235294,37.3529412 12.2058824,36.4705882 C10.4411765,35.5882353 8.97058824,34.5588235 7.5,33.0882353 C6.17647059,31.6176471 5,30 4.26470588,27.7941176 C3.38235294,25.7352941 2.94117647,23.0882353 2.94117647,20 C2.94117647,17.5 3.38235294,15.1470588 4.41176471,12.7941176 C5.44117647,10.4411765 6.91176471,8.38235294 8.82352941,6.47058824 C10.7352941,4.70588235 13.0882353,3.23529412 15.8823529,2.05882353 C18.6764706,1.02941176 21.9117647,0.441176471 25.4411765,0.441176471 C27.5,0.441176471 29.4117647,0.588235294 31.3235294,0.882352941 C33.2352941,1.17647059 35,1.61764706 36.7647059,2.35294118 C38.5294118,2.94117647 40,3.67647059 41.6176471,4.55882353 C43.0882353,5.44117647 44.4117647,6.32352941 45.5882353,7.5 L41.3235294,14.1176471 Z" id="Shape"></path>
                            <path d="M97.5,49.4117647 C97.7941176,49.4117647 98.2352941,49.4117647 98.5294118,49.5588235 C98.8235294,49.7058824 99.2647059,50 99.5588235,50.2941176 L105.588235,56.6176471 C102.941176,60.1470588 99.7058824,62.6470588 95.7352941,64.4117647 C91.7647059,66.1764706 87.0588235,67.0588235 81.6176471,67.0588235 C76.6176471,67.0588235 72.2058824,66.1764706 68.2352941,64.5588235 C64.2647059,62.7941176 60.8823529,60.5882353 58.2352941,57.5 C55.4411765,54.5588235 53.3823529,51.0294118 51.9117647,46.9117647 C50.4411765,42.7941176 49.7058824,38.3823529 49.7058824,33.5294118 C49.7058824,28.6764706 50.5882353,24.1176471 52.2058824,20 C53.8235294,15.8823529 56.1764706,12.3529412 59.2647059,9.41176471 C62.2058824,6.47058824 65.8823529,4.11764706 70.1470588,2.5 C74.4117647,0.882352941 78.9705882,0 83.9705882,0 C86.4705882,0 88.6764706,0.147058824 90.8823529,0.588235294 C93.0882353,1.02941176 95.1470588,1.61764706 96.9117647,2.35294118 C98.8235294,3.08823529 100.588235,3.97058824 102.058824,5.14705882 C103.676471,6.17647059 105,7.35294118 106.323529,8.67647059 L101.176471,15.5882353 C100.882353,16.0294118 100.441176,16.3235294 100,16.7647059 C99.5588235,17.0588235 98.9705882,17.3529412 98.0882353,17.3529412 C97.5,17.3529412 97.0588235,17.2058824 96.6176471,17.0588235 C96.1764706,16.7647059 95.5882353,16.4705882 95.1470588,16.1764706 C94.5588235,15.8823529 93.9705882,15.4411765 93.3823529,15 C92.7941176,14.5588235 91.9117647,14.2647059 91.0294118,13.8235294 C90.1470588,13.5294118 89.1176471,13.2352941 87.9411765,12.9411765 C86.7647059,12.6470588 85.4411765,12.6470588 83.8235294,12.6470588 C81.0294118,12.6470588 78.5294118,13.0882353 76.3235294,14.1176471 C74.1176471,15.1470588 72.0588235,16.4705882 70.4411765,18.3823529 C68.8235294,20.1470588 67.5,22.3529412 66.6176471,25 C65.7352941,27.6470588 65.2941176,30.4411765 65.2941176,33.6764706 C65.2941176,37.0588235 65.7352941,40 66.6176471,42.6470588 C67.5,45.2941176 68.8235294,47.5 70.2941176,49.2647059 C71.9117647,51.0294118 73.6764706,52.3529412 75.7352941,53.3823529 C77.7941176,54.2647059 80.1470588,54.8529412 82.5,54.8529412 C83.8235294,54.8529412 85.1470588,54.8529412 86.3235294,54.7058824 C87.5,54.5588235 88.5294118,54.2647059 89.5588235,53.9705882 C90.5882353,53.6764706 91.4705882,53.2352941 92.3529412,52.6470588 C93.2352941,52.0588235 94.1176471,51.4705882 95,50.7352941 C95.2941176,50.4411765 95.7352941,50.1470588 96.1764706,50 C96.6176471,49.5588235 97.0588235,49.4117647 97.5,49.4117647 Z" id="Shape"></path>
                            <polygon id="Shape" points="169.852941 66.4705882 154.558824 66.4705882 154.558824 38.6764706 127.941176 38.6764706 127.941176 66.4705882 112.647059 66.4705882 112.647059 0.735294118 127.941176 0.735294118 127.941176 28.2352941 154.558824 28.2352941 154.558824 0.735294118 169.852941 0.735294118"></polygon>
                            <path d="M35.2941176,110 C35.8823529,111.176471 36.3235294,112.5 36.9117647,113.823529 C37.3529412,112.5 37.9411765,111.176471 38.5294118,110 C39.1176471,108.823529 39.7058824,107.5 40.2941176,106.323529 L57.0588235,73.0882353 C57.3529412,72.5 57.6470588,72.0588235 57.9411765,71.7647059 C58.2352941,71.4705882 58.6764706,71.1764706 58.9705882,71.0294118 C59.4117647,70.8823529 59.8529412,70.7352941 60.2941176,70.7352941 L62.0588235,70.7352941 L73.6764706,70.7352941 L73.6764706,136.323529 L60.2941176,136.323529 L60.2941176,98.6764706 C60.2941176,96.9117647 60.4411765,94.8529412 60.5882353,92.7941176 L43.2352941,126.617647 C42.6470588,127.647059 41.9117647,128.529412 41.0294118,128.970588 C40.1470588,129.558824 39.1176471,129.852941 37.9411765,129.852941 L35.8823529,129.852941 C34.7058824,129.852941 33.6764706,129.558824 32.7941176,128.970588 C31.9117647,128.382353 31.1764706,127.647059 30.5882353,126.617647 L13.0882353,92.7941176 C13.2352941,93.8235294 13.2352941,94.8529412 13.3823529,95.8823529 C13.3823529,96.9117647 13.5294118,97.9411765 13.5294118,98.6764706 L13.5294118,136.470588 L0,136.470588 L0,70.8823529 L11.6176471,70.8823529 L13.3823529,70.8823529 C13.8235294,70.8823529 14.2647059,71.0294118 14.7058824,71.1764706 C15.1470588,71.3235294 15.4411765,71.6176471 15.7352941,71.9117647 C16.0294118,72.2058824 16.3235294,72.6470588 16.6176471,73.2352941 L33.5294118,106.617647 C34.1176471,107.647059 34.7058824,108.823529 35.2941176,110 Z" id="Shape"></path>
                            <path d="M149.117647,103.676471 C149.117647,108.382353 148.235294,112.794118 146.617647,116.911765 C145,121.029412 142.647059,124.558824 139.705882,127.647059 C136.764706,130.735294 133.235294,133.088235 128.970588,134.705882 C124.852941,136.470588 120.147059,137.205882 115,137.205882 C109.852941,137.205882 105.294118,136.323529 101.029412,134.705882 C96.7647059,132.941176 93.2352941,130.588235 90.2941176,127.647059 C87.3529412,124.558824 85,121.029412 83.3823529,116.911765 C81.7647059,112.794118 80.8823529,108.382353 80.8823529,103.676471 C80.8823529,98.9705882 81.7647059,94.5588235 83.3823529,90.4411765 C85,86.3235294 87.3529412,82.7941176 90.2941176,79.8529412 C93.2352941,76.9117647 96.9117647,74.5588235 101.029412,72.7941176 C105.294118,71.0294118 109.852941,70.2941176 115,70.2941176 C120.147059,70.2941176 124.705882,71.1764706 128.970588,72.9411765 C133.088235,74.7058824 136.764706,77.0588235 139.705882,80 C142.647059,82.9411765 145,86.6176471 146.617647,90.5882353 C148.382353,94.5588235 149.117647,98.9705882 149.117647,103.676471 Z M133.529412,103.676471 C133.529412,100.441176 133.088235,97.5 132.205882,94.8529412 C131.323529,92.2058824 130.147059,90 128.529412,88.2352941 C126.911765,86.4705882 125,85 122.794118,84.1176471 C120.588235,83.0882353 117.941176,82.6470588 115,82.6470588 C112.058824,82.6470588 109.411765,83.0882353 107.205882,84.1176471 C104.852941,85.1470588 102.941176,86.4705882 101.470588,88.2352941 C99.8529412,90 98.6764706,92.2058824 97.7941176,94.8529412 C96.9117647,97.5 96.4705882,100.441176 96.4705882,103.676471 C96.4705882,106.911765 96.9117647,109.852941 97.7941176,112.5 C98.6764706,115.147059 99.8529412,117.352941 101.470588,119.117647 C103.088235,120.882353 105,122.352941 107.205882,123.235294 C109.558824,124.117647 112.058824,124.705882 115,124.705882 C117.941176,124.705882 120.441176,124.264706 122.794118,123.235294 C125,122.352941 127.058824,120.882353 128.529412,119.117647 C130.147059,117.352941 131.323529,115.147059 132.205882,112.5 C133.088235,109.852941 133.529412,106.911765 133.529412,103.676471 Z" id="Shape"></path>
                            <path d="M171.617647,114.558824 L171.617647,136.470588 L156.470588,136.470588 L156.470588,70.8823529 L179.558824,70.8823529 C184.117647,70.8823529 188.088235,71.4705882 191.470588,72.5 C194.852941,73.5294118 197.5,75.1470588 199.705882,77.0588235 C201.911765,78.9705882 203.382353,81.3235294 204.411765,83.8235294 C205.441176,86.4705882 205.882353,89.2647059 205.882353,92.3529412 C205.882353,95.5882353 205.294118,98.6764706 204.264706,101.323529 C203.235294,104.117647 201.617647,106.470588 199.411765,108.382353 C197.205882,110.294118 194.558824,111.911765 191.176471,112.941176 C187.794118,113.970588 183.970588,114.558824 179.411765,114.558824 L171.617647,114.558824 L171.617647,114.558824 Z M171.617647,103.088235 L179.558824,103.088235 C183.529412,103.088235 186.323529,102.205882 188.088235,100.294118 C189.852941,98.3823529 190.735294,95.7352941 190.735294,92.3529412 C190.735294,90.8823529 190.441176,89.4117647 190,88.2352941 C189.558824,87.0588235 188.823529,85.8823529 187.941176,85 C187.058824,84.1176471 185.882353,83.3823529 184.411765,82.9411765 C183.088235,82.5 181.323529,82.2058824 179.411765,82.2058824 L171.470588,82.2058824 L171.470588,103.088235 L171.617647,103.088235 Z" id="Shape"></path>
                            <polygon id="Shape" points="42.2058824 140.147059 42.2058824 151.911765 15.2941176 151.911765 15.2941176 167.205882 35.8823529 167.205882 35.8823529 178.529412 15.2941176 178.529412 15.2941176 194.117647 42.2058824 194.117647 42.2058824 205.882353 0 205.882353 0 140.147059"></polygon>
                            <path d="M66.0294118,181.617647 L66.0294118,205.882353 L50.8823529,205.882353 L50.8823529,140.147059 L72.2058824,140.147059 C76.9117647,140.147059 81.0294118,140.588235 84.2647059,141.617647 C87.6470588,142.647059 90.2941176,143.970588 92.5,145.735294 C94.5588235,147.5 96.1764706,149.558824 97.0588235,151.911765 C98.0882353,154.264706 98.5294118,156.911765 98.5294118,159.705882 C98.5294118,161.911765 98.2352941,163.823529 97.6470588,165.735294 C97.0588235,167.647059 96.1764706,169.411765 95.1470588,171.029412 C93.9705882,172.647059 92.6470588,174.117647 91.0294118,175.294118 C89.4117647,176.617647 87.5,177.647059 85.4411765,178.382353 C86.4705882,178.823529 87.3529412,179.558824 88.2352941,180.294118 C89.1176471,181.029412 89.8529412,181.911765 90.5882353,183.088235 L104.411765,205.882353 L90.5882353,205.882353 C88.0882353,205.882353 86.1764706,204.852941 85.1470588,202.941176 L74.2647059,183.823529 C73.8235294,182.941176 73.2352941,182.352941 72.6470588,182.058824 C72.0588235,181.764706 71.0294118,181.470588 70,181.470588 L66.0294118,181.470588 L66.0294118,181.617647 Z M66.0294118,171.029412 L72.2058824,171.029412 C74.2647059,171.029412 76.0294118,170.735294 77.5,170.294118 C78.9705882,169.705882 80.1470588,168.970588 81.0294118,168.088235 C81.9117647,167.205882 82.6470588,166.029412 83.0882353,164.852941 C83.5294118,163.676471 83.6764706,162.205882 83.6764706,160.882353 C83.6764706,157.941176 82.7941176,155.735294 80.8823529,154.117647 C78.9705882,152.5 76.1764706,151.617647 72.2058824,151.617647 L66.0294118,151.617647 L66.0294118,171.029412 Z" id="Shape"></path>
                            <path d="M171.617647,205.882353 L159.852941,205.882353 C158.529412,205.882353 157.5,205.588235 156.617647,205 C155.735294,204.411765 155.147059,203.529412 154.852941,202.647059 L151.029412,191.176471 L126.176471,191.176471 L122.352941,202.647059 C122.058824,203.529412 121.470588,204.264706 120.588235,204.852941 C119.705882,205.588235 118.676471,205.882353 117.352941,205.882353 L105.441176,205.882353 L130.735294,140.147059 L146.323529,140.147059 L171.617647,205.882353 Z M129.558824,180.735294 L147.5,180.735294 L141.470588,162.794118 C141.029412,161.617647 140.588235,160.294118 140.147059,158.823529 C139.558824,157.205882 139.117647,155.588235 138.529412,153.823529 C138.088235,155.588235 137.5,157.352941 137.058824,158.970588 C136.617647,160.588235 136.029412,161.911765 135.588235,163.088235 L129.558824,180.735294 Z" id="Shape"></path>
                        </g>
                        <rect id="Rectangle-path" stroke="#02A8E0" stroke-width="10" x="0" y="0" width="250" height="250"></rect>
                    </g>
                </g>
            </g>
        </g>
    </g>
</svg>