<?xml version="1.0" encoding="UTF-8" standalone="no"?>
<svg width="188px" height="111px" viewBox="0 0 188 111" version="1.1" xmlns="http://www.w3.org/2000/svg" xmlns:xlink="http://www.w3.org/1999/xlink">
    <!-- Generator: Sketch 42 (36781) - http://www.bohemiancoding.com/sketch -->
    <title>tag_andrej</title>
    <desc>Created with Sketch.</desc>
    <defs></defs>
    <g id="Welcome" stroke="none" stroke-width="1" fill="none" fill-rule="evenodd">
        <g id="Desktop-HD" transform="translate(-339.000000, -1283.000000)" fill="#27242E">
            <g id="bios" transform="translate(61.000000, 1259.000000)">
                <g id="tag_andrej" transform="translate(278.000000, 24.000000)">
                    <path d="M121.588532,39.1278882 C122.359824,38.0920824 123.651904,37.8020238 124.728911,38.4826726 C125.281011,38.8320614 125.849592,39.1987547 126.294568,39.6676279 C128.142867,41.6131628 130.432023,42.8961776 132.756612,44.1429351 C137.742818,46.8169127 142.73232,49.485122 147.698749,52.1953569 C149.430036,53.1388713 151.128362,54.1507802 152.788783,55.214603 C154.276157,56.1680058 154.483812,57.3809781 153.53041,58.9318026 C153.327698,59.2622387 153.051648,59.5621856 152.759117,59.818459 C152.233386,60.2807398 151.591467,60.4801551 150.938011,60.1843283 C150.221105,59.8604845 149.556937,59.4237486 148.866399,59.0430467 C142.185164,55.3563362 135.503104,51.6696257 128.816924,47.9903315 C128.474952,47.8016286 128.095898,47.676376 127.726732,47.5404111 C127.607248,47.4967375 127.388056,47.4588321 127.348502,47.5156902 C127.208417,47.7101613 126.993346,47.9829152 127.042787,48.1617297 C127.629497,50.3149203 128.215382,52.4705829 128.886967,54.5998766 C130.390821,59.3668905 131.905389,64.1306083 133.495767,68.8696052 C134.080004,70.6116047 133.627612,71.9382931 132.348717,73.1199522 C131.556,73.8516909 130.460864,73.7239663 130.045553,72.7977565 C129.724181,72.0792023 129.428354,71.3449915 129.185265,70.5967722 C127.402064,65.0914273 125.654297,59.5745461 123.852143,54.0757935 C123.075083,51.7025869 122.169474,49.3705818 121.371812,47.0039675 C120.910356,45.6385497 120.325294,44.2945566 120.365672,42.8055343 C120.368144,41.4450607 120.774391,40.220552 121.588532,39.1278882 Z M146.037339,107.906134 C143.91299,114.562649 141.369209,121.057654 138.421654,127.387029 C137.425401,129.527859 136.148979,131.541788 134.92035,133.565606 C134.600626,134.094633 134.022981,134.503352 133.491482,134.856037 C133.025905,135.165048 132.478749,135.063693 132.020588,134.720896 C131.53029,134.355027 131.461072,133.813639 131.646478,133.311805 C131.871439,132.700375 132.216707,132.131794 132.537255,131.558269 C133.370349,130.064302 134.316336,128.623898 135.045602,127.081314 C138.368092,120.049865 141.303287,112.856907 143.369954,105.349169 C146.216154,95.0084155 145.71432,84.7599537 142.152862,74.6664094 C141.408763,72.5601886 140.445471,70.5306026 139.577768,68.4688793 C138.54773,66.0215101 137.15924,63.7941568 135.454321,61.7612746 C134.946719,61.1564366 134.416044,60.565607 133.954587,59.9261597 C133.146213,58.8038308 133.313491,57.495271 134.359185,56.3375088 C135.062907,55.5579763 136.099537,55.4640369 136.791722,56.1718787 C138.452967,57.8735008 140.030984,59.6707104 141.140953,61.7752832 C144.596935,68.3296183 147.3665,75.1328105 148.296006,82.5663856 C148.622322,85.181857 148.993959,87.7907362 148.905788,90.4391688 C148.859642,96.4084426 147.850206,102.220327 146.037339,107.906134 Z" id="Fill-106" transform="translate(137.236650, 86.577602) rotate(106.000000) translate(-137.236650, -86.577602) "></path>
                    <text id="the-geek-&amp;-designer" font-family="AnnieUseYourTelescope, Annie Use Your Telescope" font-size="36" font-weight="normal" line-spacing="31">
                        <tspan x="0" y="37">the geek</tspan>
                        <tspan x="0" y="68">&amp; designer</tspan>
                    </text>
                </g>
            </g>
        </g>
    </g>
</svg>