<?xml version="1.0" encoding="UTF-8" standalone="no"?>
<svg width="243px" height="63px" viewBox="0 0 243 63" version="1.1" xmlns="http://www.w3.org/2000/svg" xmlns:xlink="http://www.w3.org/1999/xlink">
    <!-- Generator: Sketch 42 (36781) - http://www.bohemiancoding.com/sketch -->
    <title>tag_jenna</title>
    <desc>Created with Sketch.</desc>
    <defs></defs>
    <g id="Welcome" stroke="none" stroke-width="1" fill="none" fill-rule="evenodd">
        <g id="Desktop-HD" transform="translate(-914.000000, -1274.000000)" fill="#27242E">
            <g id="bios" transform="translate(61.000000, 1259.000000)">
                <g id="tag_jenna" transform="translate(847.000000, 13.000000)">
                    <path d="M69.8043122,34.8694709 C67.1597218,35.3405566 64.4500221,35.8370157 61.750376,36.3779981 C50.751676,38.5850151 40.2106567,42.2474184 29.8448583,46.4584642 C25.8042459,48.1005614 21.7851771,49.7962781 17.7550972,51.4642276 C14.2162102,52.9301464 10.749135,54.5454339 7.4232897,56.4527561 C6.96034276,56.7184599 6.4844697,56.9645351 5.99902172,57.1842793 C5.60070543,57.3642876 5.04823308,56.9607051 5.01184842,56.5015881 C4.92615297,55.4244107 5.30484069,54.5363377 6.16323144,53.8952974 C6.65107315,53.5304933 7.18822564,53.2212237 7.73495305,52.9502537 C9.79020764,51.9286107 11.8411535,50.8964354 13.9251329,49.9365506 C16.7746263,48.6233515 19.651887,47.3709532 22.5181365,46.0955751 C31.9025066,41.9204352 41.5693365,38.5237356 51.4094723,35.6038666 C55.5922721,34.3629582 59.8234252,33.3111542 64.0885692,32.3919628 C64.3102284,32.344567 64.5294938,32.2799363 64.7458868,32.2086032 C64.8071662,32.1884959 64.8660519,32.1253015 64.9010004,32.0668946 C65.0029732,31.8978974 64.9603648,31.7566675 64.7784415,31.6853344 C62.3569466,30.732152 59.8866196,29.9225933 57.3669818,29.2786805 C53.6586189,28.3307644 49.9785019,27.2918866 46.3558344,26.0557656 C45.0536466,25.611011 43.7643848,25.1241268 42.4832618,24.6219227 C42.0610082,24.4562767 41.6574257,24.2159465 41.2887916,23.9488065 C40.9646809,23.7132637 40.847867,23.3297885 40.8842517,22.928121 C40.9579785,22.1204772 41.3452836,21.4727345 41.9796214,20.9887228 C42.2860186,20.755095 42.6656638,20.6349298 43.0615864,20.7282852 C43.3574511,20.7981821 43.6566671,20.8862712 43.9300308,21.0174475 C47.1907666,22.5848604 50.6463519,23.5854386 54.1301832,24.484044 C57.9098793,25.4587699 61.6512756,26.5464798 65.3629898,27.7605784 C67.6111789,28.4959316 69.9455421,28.9698897 72.2430419,29.5520442 C73.5040577,29.8713675 74.7703396,30.1681898 76.0323129,30.4827256 C76.3272201,30.5564524 76.6226061,30.6402329 76.9041085,30.7541743 C77.3742366,30.944715 77.6811125,31.6101713 77.5403613,32.0951406 C77.3450332,32.7682568 77.0395935,33.3786573 76.500526,33.8473492 C76.3851483,33.9478858 76.2668982,34.0493798 76.1352432,34.1250216 C72.7811519,36.0543662 70.6727566,39.1915857 68.3235522,42.1085822 C66.9189128,43.853131 66.0140837,45.8839696 64.8435509,47.7606521 C64.5620485,48.2116304 64.3643266,48.7171857 64.1488911,49.2064636 C63.3785895,50.9538848 62.6255228,52.7084872 61.8480401,54.4515997 C61.6273384,54.9466226 61.31376,55.3837173 60.7713413,55.5895779 C60.4740404,55.7025618 60.1834418,55.7183604 59.891407,55.5613319 C59.5179855,55.3607375 59.3384559,55.0356693 59.3236148,54.633523 C59.3159549,54.4099489 59.3547333,54.1696186 59.434205,53.9604068 C59.7583158,53.1024948 60.0900864,52.2464978 60.4501031,51.4029481 C60.7799588,50.6292953 61.1979036,49.890591 61.4908959,49.1035333 C61.9744289,47.8046967 62.6733974,46.6245889 63.3235338,45.4095327 C64.9603648,42.3508275 67.1238159,39.6712887 69.2279025,36.9453116 C69.6018028,36.4603424 69.9857567,35.9835118 70.3457734,35.4889677 C70.4276389,35.37742 70.489397,35.0992688 70.4554061,35.080119 C70.2801852,34.9791037 70.0513449,34.8254264 69.8043122,34.8694709" id="Fill-23" transform="translate(41.287376, 38.962317) scale(-1, 1) rotate(30.000000) translate(-41.287376, -38.962317) "></path>
                    <text id="the-musician-&amp;-word-" font-family="AnnieUseYourTelescope, Annie Use Your Telescope" font-size="36" font-weight="normal" line-spacing="31">
                        <tspan x="84.728697" y="37">the musician</tspan>
                        <tspan x="84.728697" y="68">&amp; word-smith</tspan>
                    </text>
                </g>
            </g>
        </g>
    </g>
</svg>